<svg enable-background="new 0 0 1024 576" viewBox="0 0 1024 576" xmlns="http://www.w3.org/2000/svg"><path d="m.5.5v575h1023v-575zm340.3 574h-339.3v-190h339.3zm0-191h-339.3v-191h339.3zm0-192h-339.3v-190h339.3zm341.4 383h-340.4v-190h340.3v190zm0-191h-340.4v-191h340.3v191zm0-192h-340.4v-190h340.3v190zm340.3 383h-339.3v-190h339.3zm0-191h-339.3v-191h339.3zm0-192h-339.3v-190h339.3z" fill="#fff" opacity=".5"/><path d="m1023.5.5v575h-1023v-575zm-340.3 191h339.3v-190h-339.3zm-341.4 0h340.3v-190h-340.3zm-340.3 0h339.3v-190h-339.3zm681.7 192h339.3v-191h-339.3zm-341.4 0h340.3v-191h-340.3zm-340.3 0h339.3v-191h-339.3zm681.7 191h339.3v-190h-339.3zm-341.4 0h340.3v-190h-340.3zm-340.3 0h339.3v-190h-339.3zm1022.5-574.5h-.5-1023-.5v.5 575 .5h.5 1023 .5v-.5-575zm-340.3 2h338.3v189h-338.3zm-341.4 0h339.3v189h-339.3zm-340.3 0h338.3v189h-338.3zm681.7 191h338.3v190h-338.3zm-341.4 0h339.3v190h-339.3zm-340.3 0h338.3v190h-338.3zm681.7 192h338.3v189h-338.3zm-341.4 0h339.3v189h-339.3zm-340.3 0h338.3v189h-338.3z" opacity=".25"/></svg>